<svg width="22" height="21" viewBox="0 0 22 21" fill="none" xmlns="http://www.w3.org/2000/svg">
<path d="M0.666626 21C0.666626 18.8783 1.50948 16.8434 3.00977 15.3431C4.51006 13.8429 6.54489 13 8.66663 13C10.7884 13 12.8232 13.8429 14.3235 15.3431C15.8238 16.8434 16.6666 18.8783 16.6666 21H14.6666C14.6666 19.4087 14.0345 17.8826 12.9093 16.7574C11.784 15.6321 10.2579 15 8.66663 15C7.07533 15 5.5492 15.6321 4.42399 16.7574C3.29877 17.8826 2.66663 19.4087 2.66663 21H0.666626ZM8.66663 12C5.35163 12 2.66663 9.315 2.66663 6C2.66663 2.685 5.35163 0 8.66663 0C11.9816 0 14.6666 2.685 14.6666 6C14.6666 9.315 11.9816 12 8.66663 12ZM8.66663 10C10.8766 10 12.6666 8.21 12.6666 6C12.6666 3.79 10.8766 2 8.66663 2C6.45663 2 4.66663 3.79 4.66663 6C4.66663 8.21 6.45663 10 8.66663 10ZM16.9506 13.703C18.356 14.3359 19.5486 15.3612 20.3852 16.6557C21.2218 17.9502 21.6668 19.4587 21.6666 21H19.6666C19.6669 19.844 19.3332 18.7125 18.7057 17.7416C18.0782 16.7707 17.1837 16.0017 16.1296 15.527L16.9496 13.703H16.9506ZM16.2626 2.413C17.2702 2.8283 18.1316 3.53354 18.7376 4.43923C19.3437 5.34492 19.667 6.41024 19.6666 7.5C19.667 8.87233 19.1543 10.1952 18.2292 11.2088C17.304 12.2224 16.0333 12.8535 14.6666 12.978V10.965C15.4076 10.8589 16.095 10.518 16.6279 9.99246C17.1609 9.4669 17.5113 8.78432 17.6278 8.04493C17.7442 7.30555 17.6206 6.5483 17.275 5.88435C16.9294 5.22041 16.3801 4.68475 15.7076 4.356L16.2626 2.413Z" fill="#FFA800"/>
</svg>
