<svg width="21" height="20" viewBox="0 0 21 20" fill="none" xmlns="http://www.w3.org/2000/svg">
<path d="M15.3333 2H19.3333C19.5985 2 19.8528 2.10536 20.0404 2.29289C20.2279 2.48043 20.3333 2.73478 20.3333 3V19C20.3333 19.2652 20.2279 19.5196 20.0404 19.7071C19.8528 19.8946 19.5985 20 19.3333 20H1.33325C1.06804 20 0.813681 19.8946 0.626145 19.7071C0.438609 19.5196 0.333252 19.2652 0.333252 19V3C0.333252 2.73478 0.438609 2.48043 0.626145 2.29289C0.813681 2.10536 1.06804 2 1.33325 2H5.33325V0H7.33325V2H13.3333V0H15.3333V2ZM2.33325 8V18H18.3333V8H2.33325ZM4.33325 12H9.33325V16H4.33325V12Z" fill="#FFA800"/>
</svg>
